<mxfile host="app.diagrams.net" modified="2024-03-13T19:18:28.528Z" agent="Mozilla/5.0 (Windows NT 10.0; Win64; x64) AppleWebKit/537.36 (KHTML, like Gecko) Chrome/121.0.0.0 Safari/537.36 OPR/107.0.0.0 (Edition std-1)" version="24.0.6" etag="ejxfT8wpkR6TxwlbB3bd" type="github">
  <diagram name="PÃ¡gina-1" id="WapykckDS1jvx3AR1TPG">
    <mxGraphModel>
      <root>
        <mxCell id="0" />
        <mxCell id="1" parent="0" />
      </root>
    </mxGraphModel>
  </diagram>
</mxfile>
